:FULLY-SPECIFIED
:FORCE-ALL-JOINTS-BE-3DOF
:DEGREES
442
root 1.48949 15.2316 -9.1147 5.49212 4.83139 -13.5423
lfemur -46.8501 16.8114 3.9745
ltibia 62.9553 0 0
lfoot -24.9916 -10.2701 0
ltoes -12.7255 0 0
rfemur -14.9411 -3.44768 8.90199
rtibia 38.8284 0 0
rfoot -14.6389 -13.9723 0
rtoes -49.791 0 0
lowerback 6.02945 1.6015 4.3986
upperback 1.01281 2.43843 0.924751
thorax -2.1908 1.18676 -1.7001
lowerneck -7.15866 0.0337935 5.62298
upperneck 0.687406 -0.434285 0.0690367
head 1.41974 -0.189785 -0.949097
lclavicle 2.90226e-14 6.36111e-15 0
lhumerus -39.6318 -28.4329 97.6213
lradius 54.1431 0 0
lwrist 7.92235 0 0
lhand -20.0855 -1.30814 0
lfingers 7.12502 0 0
lthumb 6.25724 28.5794 0
rclavicle 2.90226e-14 6.36111e-15 0
rhumerus -48.3514 -2.52445 -89.7222
rradius 66.3347 0 0
rwrist 12.906 0 0
rhand -30.9208 -29.1118 0
rfingers 7.12502 0 0
rthumb -4.20662 -779.05 0
443
root 1.44341 15.2337 -9.00872 5.44747 6.74537 -13.6954
lfemur -47.4257 17.0712 3.54144
ltibia 63.0081 -0 0
lfoot -24.9796 -10.4748 -0.00985882
ltoes -12.259 0 0
rfemur -13.9641 -3.29299 8.9898
rtibia 38.3952 -0 0
rfoot -14.0187 -14.3005 -0.0581905
rtoes -51.153 0 0
lowerback 5.85833 1.53062 4.47158
upperback 0.940391 2.3438 1.01134
thorax -2.17587 1.13954 -1.64411
lowerneck -7.20059 -0.179841 5.46074
upperneck 0.66434 -0.708187 0.151395
head 1.409 -0.327082 -0.906438
lclavicle 2.90226e-14 6.36111e-15 0
lhumerus -39.74 -28.5072 97.8906
lradius 54.2057 -0 0
lwrist 7.60386 0 0
lhand -20.1674 -1.64999 0.0107344
lfingers 7.12502 -0 0
lthumb 6.17814 28.239 0.010302
rclavicle 2.90226e-14 6.36111e-15 0
rhumerus -48.5825 -2.74292 -89.4938
rradius 66.1632 -0 0
rwrist 12.8637 0 0
rhand -30.9751 -29.3387 -0.0032363
rfingers 7.12502 -0 0
rthumb -4.25908 -59.276 -0.00311651
444
root 1.40902 15.2402 -8.9147 5.3888 8.8096 -13.8287
lfemur -47.9926 17.3165 2.94557
ltibia 62.9999 -0 0
lfoot -24.9275 -10.5908 -0.0158212
ltoes -11.6152 0 0
rfemur -12.9695 -3.14416 9.11153
rtibia 38.0049 -0 0
rfoot -13.1113 -14.6023 -0.107321
rtoes -52.3601 0 0
lowerback 5.6538 1.45403 4.5463
upperback 0.859064 2.23984 1.10113
thorax -2.15191 1.08781 -1.58494
lowerneck -7.2473 -0.411134 5.288
upperneck 0.662297 -1.00513 0.230714
head 1.40643 -0.475559 -0.864226
lclavicle 2.90226e-14 6.36111e-15 0
lhumerus -39.9048 -28.5369 98.2064
lradius 54.2401 -0 0
lwrist 7.25709 0 0
lhand -20.2759 -2.05978 0.0231119
lfingers 7.12502 -0 0
lthumb 6.07335 27.8313 0.0221775
rclavicle 2.90226e-14 6.36111e-15 0
rhumerus -48.8506 -2.95076 -89.2061
rradius 65.9709 -0 0
rwrist 12.8043 0 0
rhand -31.0285 -29.5499 -0.00632524
rfingers 7.12502 -0 0
rthumb -4.31059 -59.4863 -0.00609114
445
root 1.38602 15.251 -8.83138 5.31749 10.9991 -13.9436
lfemur -48.5482 17.5441 2.2018
ltibia 62.9348 -0 0
lfoot -24.8384 -10.6232 -0.0180915
ltoes -10.8103 0 0
rfemur -11.9657 -3.00286 9.2641
rtibia 37.6576 -0 0
rfoot -11.9423 -14.8772 -0.145825
rtoes -53.4137 0 0
lowerback 5.41952 1.37277 4.62218
upperback 0.769974 2.12796 1.1933
thorax -2.1197 1.03222 -1.52327
lowerneck -7.29798 -0.657272 5.10677
upperneck 0.679868 -1.32147 0.306467
head 1.4115 -0.633403 -0.822769
lclavicle 2.90226e-14 6.36111e-15 0
lhumerus -40.121 -28.5241 98.563
lradius 54.2479 -0 0
lwrist 6.88643 0 0
lhand -20.4085 -2.53006 0.0364465
lfingers 7.12502 -0 0
lthumb 5.9453 27.3635 0.0349686
rclavicle 2.90226e-14 6.36111e-15 0
rhumerus -49.1517 -3.14643 -88.865
rradius 65.7607 -0 0
rwrist 12.7294 0 0
rhand -31.0805 -29.745 -0.00923929
rfingers 7.12502 -0 0
rthumb -4.36082 -59.6805 -0.0088973
446
root 1.37407 15.266 -8.7575 5.23506 13.2889 -14.0413
lfemur -49.0895 17.7512 1.32518
ltibia 62.8169 -0 0
lfoot -24.7153 -10.5769 -0.0170318
ltoes -9.86083 0 0
rfemur -10.9609 -2.87063 9.44437
rtibia 37.3532 -0 0
rfoot -10.5374 -15.1248 -0.172781
rtoes -54.3151 0 0
lowerback 5.15917 1.28782 4.69868
upperback 0.674271 2.00956 1.28703
thorax -2.08002 0.973438 -1.45974
lowerneck -7.35181 -0.91544 4.91904
upperneck 0.715661 -1.65355 0.37812
head 1.42367 -0.798802 -0.782373
lclavicle 2.90226e-14 6.36111e-15 0
lhumerus -40.383 -28.4711 98.9545
lradius 54.2306 -0 0
lwrist 6.49628 0 0
lhand -20.5627 -3.05337 0.0500458
lfingers 7.12502 -0 0
lthumb 5.7964 26.8431 0.0480111
rclavicle 2.90226e-14 6.36111e-15 0
rhumerus -49.4815 -3.3284 -88.4763
rradius 65.5353 -0 0
rwrist 12.6404 0 0
rhand -31.1308 -29.9235 -0.0119488
rfingers 7.12502 -0 0
rthumb -4.40946 -59.8581 -0.0115064
447
root 1.37287 15.2848 -8.6918 5.14308 15.654 -14.1231
lfemur -49.6132 17.9357 0.330916
ltibia 62.6502 -0 0
lfoot -24.5612 -10.4569 -0.0131256
ltoes -8.78311 0 0
rfemur -9.96352 -2.74885 9.64912
rtibia 37.0918 -0 0
rfoot -8.92199 -15.3443 -0.18787
rtoes -55.0658 0 0
lowerback 4.87644 1.20019 4.7752
upperback 0.573113 1.88604 1.38149
thorax -2.03365 0.912117 -1.395
lowerneck -7.40804 -1.18281 4.72681
upperneck 0.768306 -1.99772 0.445144
head 1.44243 -0.96994 -0.743348
lclavicle 2.90226e-14 6.36111e-15 0
lhumerus -40.6854 -28.3799 99.3751
lradius 54.1899 -0 0
lwrist 6.09103 0 0
lhand -20.736 -3.62228 0.0632384
lfingers 7.12502 -0 0
lthumb 5.62909 26.2776 0.060661
rclavicle 2.90226e-14 6.36111e-15 0
rhumerus -49.8357 -3.4952 -88.046
rradius 65.2974 -0 0
rwrist 12.5391 0 0
rhand -31.1792 -30.0848 -0.0144225
rfingers 7.12502 -0 0
rthumb -4.45621 -60.0186 -0.0138883
448
root 1.3821 15.3075 -8.63302 5.04323 18.0695 -14.1898
lfemur -50.1155 18.0957 -0.765671
ltibia 62.4389 -0 0
lfoot -24.3791 -10.2681 -0.00694339
ltoes -7.5935 0 0
rfemur -8.98196 -2.63874 9.87504
rtibia 36.8735 -0 0
rfoot -7.12178 -15.535 -0.191324
rtoes -55.6671 0 0
lowerback 4.57501 1.11085 4.85116
upperback 0.467666 1.75878 1.47583
thorax -1.98136 0.848925 -1.32972
lowerneck -7.46593 -1.45655 4.53206
upperneck 0.836452 -2.3503 0.507021
head 1.46725 -1.145 -0.705998
lclavicle 2.90226e-14 6.36111e-15 0
lhumerus -41.0225 -28.2527 99.8187
lradius 54.1274 -0 0
lwrist 5.67507 0 0
lhand -20.9258 -4.22931 0.0753978
lfingers 7.12502 -0 0
lthumb 5.44581 25.6742 0.0723178
rclavicle 2.90226e-14 6.36111e-15 0
rhumerus -50.21 -3.64543 -87.5801
rradius 65.05 -0 0
rwrist 12.4269 0 0
rhand -31.2254 -30.2284 -0.0166281
rfingers 7.12502 -0 0
rthumb -4.50075 -60.1614 -0.0160118
449
root 1.40144 15.3337 -8.57992 4.93724 20.5104 -14.2422
lfemur -50.5926 18.23 -1.94916
ltibia 62.1869 -0 0
lfoot -24.172 -10.0156 0.000888862
ltoes -6.30838 0 0
rfemur -8.02464 -2.54132 10.1188
rtibia 36.6982 -0 0
rfoot -5.16232 -15.6961 -0.18388
rtoes -56.1203 0 0
lowerback 4.25858 1.02076 4.92594
upperback 0.359102 1.62917 1.56922
thorax -1.92393 0.784528 -1.26453
lowerneck -7.52477 -1.73383 4.33675
upperneck 0.918762 -2.70761 0.563249
head 1.49761 -1.32217 -0.670625
lclavicle 2.90226e-14 6.36111e-15 0
lhumerus -41.3887 -28.0918 100.279
lradius 54.0446 -0 0
lwrist 5.2528 0 0
lhand -21.1296 -4.867 0.0859637
lfingers 7.12502 -0 0
lthumb 5.24901 25.0405 0.0824444
rclavicle 2.90226e-14 6.36111e-15 0
rhumerus -50.6 -3.77781 -87.0847
rradius 64.7956 -0 0
rwrist 12.3054 0 0
rhand -31.2689 -30.3539 -0.0185328
rfingers 7.12502 -0 0
rthumb -4.54276 -60.286 -0.0178454
450
root 1.43057 15.3633 -8.53122 4.82693 22.9518 -14.2806
lfemur -51.0403 18.3378 -3.20404
ltibia 61.8983 -0 0
lfoot -23.9429 -9.70432 0.00971823
ltoes -4.94412 0 0
rfemur -7.1 -2.4574 10.377
rtibia 36.566 -0 0
rfoot -3.06914 -15.8265 -0.166721
rtoes -56.4268 0 0
lowerback 3.93084 0.930862 4.99891
upperback 0.248602 1.49858 1.66079
thorax -1.86213 0.719597 -1.2001
lowerneck -7.58393 -2.01178 4.14283
upperneck 1.01392 -3.06598 0.613346
head 1.53301 -1.49963 -0.637529
lclavicle 2.90226e-14 6.36111e-15 0
lhumerus -41.7786 -27.8996 100.751
lradius 53.9433 -0 0
lwrist 4.82862 0 0
lhand -21.3448 -5.52788 0.0944595
lfingers 7.12502 -0 0
lthumb 5.04117 24.3839 0.0905844
rclavicle 2.90226e-14 6.36111e-15 0
rhumerus -51.001 -3.89119 -86.5658
rradius 64.5372 -0 0
rwrist 12.1761 0 0
rhand -31.3095 -30.4606 -0.020104
rfingers 7.12502 -0 0
rthumb -4.58195 -60.392 -0.0193578
451
root 1.46917 15.3961 -8.48567 4.71426 25.3687 -14.3051
lfemur -51.4543 18.4188 -4.51476
ltibia 61.5773 -0 0
lfoot -23.6948 -9.33918 0.0188913
ltoes -3.5171 0 0
rfemur -6.21653 -2.3876 10.6462
rtibia 36.477 -0 0
rfoot -0.86776 -15.9255 -0.141428
rtoes -56.5879 0 0
lowerback 3.5955 0.84208 5.06941
upperback 0.137356 1.36837 1.74968
thorax -1.79672 0.654805 -1.13706
lowerneck -7.64276 -2.28756 3.95225
upperneck 1.1206 -3.42171 0.65686
head 1.57295 -1.67556 -0.607001
lclavicle 2.90226e-14 6.36111e-15 0
lhumerus -42.1867 -27.6787 101.228
lradius 53.8249 -0 0
lwrist 4.40692 0 0
lhand -21.5689 -6.20449 0.100507
lfingers 7.12502 -0 0
lthumb 4.82477 23.7117 0.0963754
rclavicle 2.90226e-14 6.36111e-15 0
rhumerus -51.4085 -3.98456 -86.0297
rradius 64.2774 -0 0
rwrist 12.0406 0 0
rhand -31.3468 -30.5481 -0.02131
rfingers 7.12502 -0 0
rthumb -4.618 -60.4787 -0.0205183
